<svg xmlns="http://www.w3.org/2000/svg" width="24" height="24" viewBox="0 0 24 24" fill="none" stroke="hsl(267 100% 60%)" stroke-width="2" stroke-linecap="round" stroke-linejoin="round">
  <path d="M12 2a9.5 9.5 0 0 0-9.5 9.5c0 2.73.94 5.26 2.5 7.14"/>
  <path d="M12 2a9.5 9.5 0 0 1 9.5 9.5c0 2.73-.94 5.26-2.5 7.14"/>
  <path d="M12 22c-2.73 0-5.26-.94-7.14-2.5"/>
  <path d="M12 22c2.73 0 5.26-.94 7.14-2.5"/>
  <path d="M14.5 10.5a2.5 2.5 0 1 0-5 0 2.5 2.5 0 0 0 5 0Z"/>
  <path d="M4.5 10.5A2.5 2.5 0 0 1 7 8"/>
  <path d="M19.5 10.5a2.5 2.5 0 0 0-2.5-2.5"/>
  <path d="M12 13.5V22"/>
  <path d="M9.5 10.5c0-2.73.94-5.26 2.5-7.14"/>
  <path d="M14.5 10.5c0-2.73-.94-5.26-2.5-7.14"/>
</svg>
