<svg width="48" height="48" viewBox="0 0 24 24" fill="hsl(267, 100%, 60%)" xmlns="http://www.w3.org/2000/svg">
  <path d="M19.2662 9.75648C19.7949 8.03448 20 6.97448 20 5.92148C20 3.00148 17.739 1.07848 14.896 2.07248C13.6161 2.52318 12.5835 2.80331 12 2.92148C11.4165 2.80331 10.3839 2.52318 9.10399 2.07248C6.26101 1.07848 4 3.00148 4 5.92148C4 6.97448 4.20509 8.03448 4.73381 9.75648C4.96248 10.4764 5.12801 11.0683 5.13204 11.9995C5.12801 12.9307 4.96248 13.5225 4.73381 14.2425C4.20509 15.9645 4 17.0245 4 18.0775C4 20.9975 6.26101 22.9205 9.10399 21.9265C10.3839 21.4758 11.4165 21.1957 12 21.0775C12.5835 21.1957 13.6161 21.4758 14.896 21.9265C17.739 22.9205 20 20.9975 20 18.0775C20 17.0245 19.7949 15.9645 19.2662 14.2425C19.0375 13.5225 18.872 12.9307 18.8679 11.9995C18.872 11.0683 19.0375 10.4764 19.2662 9.75648Z"/>
</svg>
