<svg
  xmlns="http://www.w3.org/2000/svg"
  width="32"
  height="32"
  viewBox="0 0 24 24"
  fill="none"
  stroke="hsl(267, 100%, 60%)"
  stroke-width="2"
  stroke-linecap="round"
  stroke-linejoin="round"
>
  <path d="M9.5 2A2.5 2.5 0 0 1 12 4.5v15a2.5 2.5 0 0 1-4.96.44 2.5 2.5 0 0 1-2.96-3.08.5.5 0 0 0-.8-.63A6.5 6.5 0 0 0 5 19.5a2.5 2.5 0 0 1-5 0A2.5 2.5 0 0 1 2.5 15c0-2.5 2-4.5 4.5-4.5.63 0 1.24.13 1.79.37.29.12.61.03.81-.19a2.5 2.5 0 0 1 4.32-1.25A4.5 4.5 0 0 0 18 8.5a2.5 2.5 0 0 1 5 0 2.5 2.5 0 0 1-2.5 4.5c-1.07 0-2.07-.4-2.83-1.07A.5.5 0 0 0 17 11.5a2.5 2.5 0 0 1-3.07-2.96A2.5 2.5 0 0 1 9.5 6.5V2Z" />
  <path d="M14.5 2A2.5 2.5 0 0 0 12 4.5v15a2.5 2.5 0 0 0 4.96.44 2.5 2.5 0 0 0 2.96-3.08.5.5 0 0 1 .8-.63A6.5 6.5 0 0 1 19 19.5a2.5 2.5 0 0 0 5 0A2.5 2.5 0 0 0 21.5 15c0-2.5-2-4.5-4.5-4.5-.63 0-1.24.13-1.79.37-.29.12-.61.03-.81-.19a2.5 2.5 0 0 0-4.32-1.25A4.5 4.5 0 0 1 6 8.5a2.5 2.5 0 0 0-5 0 2.5 2.5 0 0 0 2.5 4.5c1.07 0 2.07-.4 2.83-1.07A.5.5 0 0 1 7 11.5a2.5 2.5 0 0 0 3.07-2.96A2.5 2.5 0 0 0 14.5 6.5V2Z" />
</svg>
